REM MD5 f8b4ee41e2fe7e47076702cd77c7469c
FILE "Dynamite Soccer 98 (Japan) (Demo).bin" BINARY
  TRACK 01 MODE2/2352
    INDEX 01 00:00:00
  TRACK 02 AUDIO
    INDEX 00 00:20:51
    INDEX 01 00:22:51
  TRACK 03 AUDIO
    INDEX 00 03:22:35
    INDEX 01 03:24:35
REM LEADOUT 06:22:60
